<?xml version="1.0" standalone="no"?>
<!DOCTYPE svg PUBLIC "-//W3C//DTD SVG 20010904//EN"
 "http://www.w3.org/TR/2001/REC-SVG-20010904/DTD/svg10.dtd">
<svg version="1.0" xmlns="http://www.w3.org/2000/svg"
 width="300.000000pt" height="300.000000pt" viewBox="0 0 300.000000 300.000000"
 preserveAspectRatio="xMidYMid meet">
<metadata>
Created by potrace 1.11, written by Peter Selinger 2001-2013
</metadata>
<g transform="translate(0.000000,300.000000) scale(0.100000,-0.100000)"
fill="#000000" stroke="none">
<path d="M2385 2059 c-199 -31 -372 -200 -431 -424 -22 -82 -27 -261 -9 -357
47 -267 210 -427 452 -445 l72 -6 -2 68 c-3 63 -5 68 -27 72 -29 4 -57 28 -66
57 -4 11 -7 201 -7 421 0 447 1 453 66 474 32 11 32 12 33 75 2 74 -2 76 -81
65z"/>
<path d="M2499 2048 c-1 -19 -1 -101 0 -116 1 -7 5 -11 9 -8 14 9 86 -30 120
-65 44 -45 97 -141 113 -207 16 -64 40 -92 80 -92 22 0 34 7 47 29 15 25 17
55 17 229 -1 181 -3 203 -19 221 -31 35 -91 26 -107 -15 -11 -30 -18 -30 -110
1 -92 32 -149 40 -150 23z"/>
<path d="M223 2030 c-24 -10 -38 -48 -29 -78 4 -10 23 -27 44 -38 l37 -20 1
-439 c0 -242 -2 -448 -4 -457 -2 -9 -17 -20 -33 -23 -34 -8 -52 -35 -47 -73 5
-47 31 -52 283 -52 252 0 278 5 283 52 4 35 -14 68 -37 68 -44 0 -45 9 -46
458 0 235 2 438 5 451 4 14 20 30 40 40 29 13 36 22 38 50 3 27 -2 39 -20 52
-20 16 -50 18 -258 18 -129 0 -245 -4 -257 -9z"/>
<path d="M866 1840 c2 -216 4 -224 58 -234 46 -8 74 28 90 116 18 91 34 126
78 163 31 26 33 32 33 91 l0 64 -130 0 -130 0 1 -200z"/>
<path d="M1159 2028 c0 -7 -1 -238 -1 -513 0 -275 -5 -508 -9 -517 -5 -9 -23
-19 -39 -23 -42 -9 -67 -48 -52 -81 7 -13 23 -29 38 -34 14 -6 134 -10 270
-10 274 0 304 6 304 58 0 38 -9 48 -58 67 l-42 17 0 524 0 524 -205 0 c-157 0
-205 -3 -206 -12z"/>
<path d="M1604 1974 c1 -64 2 -67 32 -82 25 -11 35 -27 52 -76 12 -33 24 -79
27 -101 11 -68 25 -93 58 -105 26 -9 36 -7 57 8 l25 19 3 202 2 201 -128 0
-129 0 1 -66z"/>
<path d="M2788 1208 c-9 -7 -29 -40 -45 -73 -25 -54 -110 -152 -121 -140 -3 3
-11 0 -18 -5 -6 -6 -31 -14 -55 -18 l-44 -7 -3 -69 -3 -69 48 6 c76 10 92 15
137 41 93 54 187 176 200 257 10 65 -50 112 -96 77z"/>
</g>
</svg>
